<svg xmlns="http://www.w3.org/2000/svg" version="1.1" xmlns:xlink="http://www.w3.org/1999/xlink" xmlns:svgjs="http://svgjs.com/svgjs" width="1440" height="560" preserveAspectRatio="none" viewBox="0 0 1440 560">
    <g mask="url(&quot;#SvgjsMask1011&quot;)" fill="none">
        <rect width="1440" height="560" x="0" y="0" fill="#0e2a47"></rect>
        <path d="M1015.3770738859929 399.1283364691139L1134.5755294756036 459.862983132452 1195.3101761389419 340.6645275428412 1076.111720549331 279.9298808795031z" fill="rgba(28, 83, 142, 0.4)" class="triangle-float1"></path>
        <path d="M1490.3920843886133 318.2936490755878L1468.7544541572604 206.9776915728006 1357.4384966544733 228.61532180415352 1379.0761268858262 339.9312793069407z" fill="rgba(28, 83, 142, 0.4)" class="triangle-float3"></path>
        <path d="M208.66,714.025C265.7,714.146,332.81,715.971,361.052,666.413C389.159,617.092,354.932,559.425,323.823,511.94C296.576,470.351,258.378,434.197,208.66,433.803C158.351,433.404,117.773,467.947,90.291,510.089C59.238,557.705,28.85,616.602,57.387,665.767C85.864,714.83,151.932,713.904,208.66,714.025" fill="rgba(28, 83, 142, 0.4)" class="triangle-float1"></path>
        <path d="M97.82538324458707 391.1985969339132L72.31219807586548 280.6888508994512-38.197547958596516 306.2020360681728-12.684362789874939 416.7117821026348z" fill="rgba(28, 83, 142, 0.4)" class="triangle-float1"></path>
        <path d="M595.695117188712 489.24128351918233L568.2470221671373 579.0199569929015 658.0256956408564 606.4680520144761 685.473790662431 516.689378540757z" fill="rgba(28, 83, 142, 0.4)" class="triangle-float1"></path>
        <path d="M1283.540048396535 197.18781869782555L1266.72844983504 60.268336004971786 1129.8089671421862 77.07993456646669 1146.6205657036812 213.99941725932047z" fill="rgba(28, 83, 142, 0.4)" class="triangle-float1"></path>
        <path d="M140.98438968088334 43.2711429420025L0.13550928392636763 124.41140434330754 121.9332525987261 197.59487178759798z" fill="rgba(28, 83, 142, 0.4)" class="triangle-float2"></path>
        <path d="M1137.828407125333 586.7557344929567L1267.1233574002113 580.1032264217233 1207.150471398896 484.1265461475757z" fill="rgba(28, 83, 142, 0.4)" class="triangle-float3"></path>
        <path d="M1308.259,479.006C1351.726,479.568,1397.895,466.6,1419.005,428.599C1439.682,391.378,1424.266,346.822,1401.772,310.67C1380.795,276.956,1347.921,252.491,1308.259,250.608C1264.995,248.554,1220.398,263.929,1197.993,300.997C1174.915,339.178,1178.873,387.869,1202.367,425.796C1224.663,461.789,1265.924,478.458,1308.259,479.006" fill="rgba(28, 83, 142, 0.4)" class="triangle-float3"></path>
        <path d="M178.144,27.21C195.71,27.774,214.132,23.535,223.781,8.845C234.311,-7.187,234.903,-28.126,225.454,-44.818C215.871,-61.747,197.556,-73.043,178.144,-71.773C160.401,-70.612,148.722,-55.004,140.463,-39.258C132.923,-24.883,129.308,-8.052,137.314,6.07C145.415,20.36,161.725,26.683,178.144,27.21" fill="rgba(28, 83, 142, 0.4)" class="triangle-float2"></path>
        <path d="M298.162953569611 244.2762706914731L367.06595334270645 172.92512571532802 226.8118085934659 175.3732709183776z" fill="rgba(28, 83, 142, 0.4)" class="triangle-float1"></path>
    </g>
    <defs>
        <mask id="SvgjsMask1011">
            <rect width="1440" height="560" fill="#ffffff"></rect>
        </mask>
        <style>
            @keyframes float1 {
                0%{transform: translate(0, 0)}
                50%{transform: translate(-10px, 0)}
                100%{transform: translate(0, 0)}
            }

            .triangle-float1 {
                animation: float1 5s infinite;
            }

            @keyframes float2 {
                0%{transform: translate(0, 0)}
                50%{transform: translate(-5px, -5px)}
                100%{transform: translate(0, 0)}
            }

            .triangle-float2 {
                animation: float2 4s infinite;
            }

            @keyframes float3 {
                0%{transform: translate(0, 0)}
                50%{transform: translate(0, -10px)}
                100%{transform: translate(0, 0)}
            }

            .triangle-float3 {
                animation: float3 6s infinite;
            }
        </style>
    </defs>
</svg>